- 
http://www.Speed.Cd 
       
http://www.Speed.Cd       the fast  and The Hottest Private Tracker on the net

(((--Registration will be open on june every weekend--)))

Please Seed back to make the speed Faster!!!

------------------nfo--------------------------
-[img]http://img863.imageshack.us/img863/4637/jackass35bluray.jpg[/img]


[color=blue][size=5][b]Jackass.3.5.2011.BDRip.XVID.AC3.HQ.Hive-CM8[/b][/size][/color]


[b]Thx Hive


CM8 Doing It Right The First Time :D


Source Bluray

Video: 720x400 @bitrate 2000 2pass
Audio: English DTS to AC3 5.1 @448
Sample: yes included
Subs: yes english in srt /subs[/b]


[url]http://www.imdb.com/title/tt1753968/[/url]


General
Complete name                    : Jackass.3.5.2011.BDRip.XVID.AC3.HQ.Hive-CM8.avi
Format                           : AVI
Format/Info                      : Audio Video Interleave
File size                        : 1.45 GiB
Duration                         : 1h 24mn
Overall bit rate                 : 2 452 Kbps
Writing application              : Nandub v1.0rc2
Writing library                  : Nandub build 1853/release

Video
ID                               : 0
Format                           : MPEG-4 Visual
Format profile                   : Advanced Simple@L5
Format settings, BVOP            : 1
Format settings, QPel            : Yes
Format settings, GMC             : No warppoints
Format settings, Matrix          : Default (H.263)
Muxing mode                      : Packed bitstream
Codec ID                         : XVID
Codec ID/Hint                    : XviD
Duration                         : 1h 24mn
Bit rate                         : 1 995 Kbps
Width                            : 720 pixels
Height                           : 400 pixels
Display aspect ratio             : 16:9
Frame rate                       : 23.976 fps
Color space                      : YUV
Chroma subsampling               : 4:2:0
Bit depth                        : 8 bits
Scan type                        : Progressive
Compression mode                 : Lossy
Bits/(Pixel*Frame)               : 0.289
Stream size                      : 1.18 GiB (81%)
Writing library                  : XviD 1.2.1 (UTC 2008-12-04)

Audio
ID                               : 1
Format                           : AC-3
Format/Info                      : Audio Coding 3
Mode extension                   : CM (complete main)
Codec ID                         : 2000
Duration                         : 1h 24mn
Bit rate mode                    : Constant
Bit rate                         : 448 Kbps
Channel(s)                       : 6 channels
Channel positions                : Front: L C R, Side: L R, LFE
Sampling rate                    : 48.0 KHz
Bit depth                        : 16 bits
Compression mode                 : Lossy
Stream size                      : 272 MiB (18%)
Alignment                        : Split accross interleaves
Interleave, duration             : 42 ms (1.00 video frame)
Interleave, preload duration     : 500 ms


Jason Acua       ...    Himself
Ryan Dunn         ...    Himself
Dave England      ...    Himself
Johnny Knoxville  ...    Himself
Preston Lacy      ...    Himself
Bam Margera       ...    Himself
Ehren McGhehey    ...    Himself
Chris Pontius     ...    Himself
Steve-O           ...    Himself


Following the release of Jackass 3D, it was evident there was enough footage for
a second film, and so Jackass 3.5 was born. Once again, the guys are pulling off
ridiculous stunts, and putting their bodies though hell, all for the sake of a
good laugh.


[img]http://img692.imageshack.us/img692/2456/jajjajajajajaa.png[/img]
[img]http://img89.imageshack.us/img89/8180/31738739.png[/img]
[img]http://img546.imageshack.us/img546/2779/jajac.png[/img]
[img]http://img94.imageshack.us/img94/5419/jajjaa.png[/img]
[img]http://img825.imageshack.us/img825/7295/jajjajaa.png[/img]
[img]http://img828.imageshack.us/img828/325/jajjajajaa.png[/img]
[img]http://img30.imageshack.us/img30/7799/jajjajajajaa.png[/img]


HiRes Label & DVD Cover:

[img]http://img808.imageshack.us/img808/4526/hireslabel.jpg[/img]

[img]http://img823.imageshack.us/img823/1048/hirescover.jpg[/img]


Greetz

ViSiON,SANTi,MAGNET,THC,T0XiC,iNK,LKRG,IMAGiNE,WBZ,FLAWL3SS,NOVA
D2U,Vik,Rapeseed,SAFC,goldadvance,MEMORY100,KaN1vE,Unevano,
Pinnz,Wayne,Mr Hive and all P2P groups 
Great Work Guys :D

FYS

CM8@hushmail.com